<svg width="16" height="20" viewBox="0 0 16 20" fill="none" xmlns="http://www.w3.org/2000/svg">
<path d="M11.25 5C11.25 6.79493 9.79493 8.25 8 8.25V9.75C10.6234 9.75 12.75 7.62335 12.75 5H11.25ZM8 1.75C9.79493 1.75 11.25 3.20507 11.25 5H12.75C12.75 2.37665 10.6234 0.25 8 0.25V1.75ZM4.75 5C4.75 3.20507 6.20507 1.75 8 1.75V0.25C5.37665 0.25 3.25 2.37665 3.25 5H4.75ZM8 8.25C6.20507 8.25 4.75 6.79493 4.75 5H3.25C3.25 7.62335 5.37665 9.75 8 9.75V8.25ZM14.25 15C14.25 15.7193 13.733 16.517 12.5776 17.1772C11.4435 17.8253 9.82666 18.25 8 18.25V19.75C10.0393 19.75 11.9225 19.2792 13.3219 18.4796C14.7 17.6921 15.75 16.4899 15.75 15H14.25ZM8 11.75C9.82666 11.75 11.4435 12.1747 12.5776 12.8228C13.733 13.483 14.25 14.2807 14.25 15H15.75C15.75 13.5101 14.7 12.3079 13.3219 11.5204C11.9225 10.7208 10.0393 10.25 8 10.25V11.75ZM1.75 15C1.75 14.2807 2.26701 13.483 3.42236 12.8228C4.55649 12.1747 6.17334 11.75 8 11.75V10.25C5.96067 10.25 4.07752 10.7208 2.67815 11.5204C1.3 12.3079 0.25 13.5101 0.25 15H1.75ZM8 18.25C6.17334 18.25 4.55649 17.8253 3.42236 17.1772C2.26701 16.517 1.75 15.7193 1.75 15H0.25C0.25 16.4899 1.3 17.6921 2.67815 18.4796C4.07752 19.2792 5.96067 19.75 8 19.75V18.25Z" fill="#7B7B7B"/>
</svg>
